<svg width="33" height="33" viewBox="0 0 33 33" fill="none" xmlns="http://www.w3.org/2000/svg">
<g clip-path="url(#clip0_63_26)">
<path d="M21.679 16.017L30.859 6.84499C31.617 6.08999 32.034 5.08499 32.034 4.01699C32.034 2.94899 31.617 1.94399 30.859 1.18799C30.105 0.432991 29.097 0.0169912 28.029 0.0169912C26.96 0.0169912 25.954 0.432991 25.197 1.18799L16.015 10.36L6.834 1.18799C6.078 0.431991 5.072 0.0159912 4.001 0.0159912C2.933 0.0159912 1.927 0.431991 1.171 1.18799C-0.389997 2.74799 -0.390997 5.28499 1.171 6.84499L10.353 16.017L1.172 25.189C-0.389997 26.751 -0.389997 29.288 1.172 30.847C1.928 31.602 2.934 32.018 4.003 32.018C5.072 32.018 6.078 31.602 6.834 30.846L16.015 21.674L25.196 30.845C25.953 31.6 26.958 32.017 28.026 32.017C29.096 32.017 30.102 31.601 30.858 30.845C32.42 29.283 32.42 26.746 30.858 25.188L21.679 16.017ZM29.442 29.431C28.686 30.186 27.368 30.187 26.61 29.431L16.723 19.553C16.331 19.16 15.698 19.16 15.307 19.553L5.418 29.432C4.661 30.187 3.343 30.187 2.586 29.432C1.806 28.652 1.806 27.383 2.586 26.603L12.475 16.724C12.663 16.536 12.768 16.284 12.768 16.017C12.768 15.752 12.663 15.497 12.475 15.31L2.585 5.43099C1.805 4.65099 1.805 3.38199 2.585 2.60199C2.964 2.22399 3.467 2.01599 4.001 2.01599C4.537 2.01599 5.039 2.22399 5.418 2.60199L15.307 12.481C15.698 12.872 16.331 12.872 16.723 12.481L26.612 2.60299C27.369 1.84699 28.686 1.84699 29.444 2.60199C29.821 2.97999 30.03 3.48299 30.03 4.01699C30.03 4.55099 29.821 5.05299 29.444 5.43099L19.555 15.31C19.163 15.701 19.163 16.332 19.555 16.724L29.444 26.602C30.224 27.382 30.224 28.65 29.442 29.431Z" fill="white"/>
</g>
<defs>
<clipPath id="clip0_63_26">
<rect width="32.034" height="32.033" fill="white"/>
</clipPath>
</defs>
</svg>
