<svg width="32" height="32" viewBox="0 0 32 32" fill="none" xmlns="http://www.w3.org/2000/svg">
<path d="M28.5 31H3.5C2.57174 31 1.6815 30.6313 1.02513 29.9749C0.368749 29.3185 0 28.4283 0 27.5L0 26.5C0 25.5717 0.368749 24.6815 1.02513 24.0251C1.6815 23.3687 2.57174 23 3.5 23H28.5C29.4283 23 30.3185 23.3687 30.9749 24.0251C31.6313 24.6815 32 25.5717 32 26.5V27.5C32 28.4283 31.6313 29.3185 30.9749 29.9749C30.3185 30.6313 29.4283 31 28.5 31V31ZM3.5 25C3.10218 25 2.72064 25.158 2.43934 25.4393C2.15804 25.7206 2 26.1022 2 26.5V27.5C2 27.8978 2.15804 28.2794 2.43934 28.5607C2.72064 28.842 3.10218 29 3.5 29H28.5C28.8978 29 29.2794 28.842 29.5607 28.5607C29.842 28.2794 30 27.8978 30 27.5V26.5C30 26.1022 29.842 25.7206 29.5607 25.4393C29.2794 25.158 28.8978 25 28.5 25H3.5Z" fill="white"/>
<path d="M28.5 20H3.5C2.57174 20 1.6815 19.6313 1.02513 18.9749C0.368749 18.3185 0 17.4283 0 16.5L0 15.5C0 14.5717 0.368749 13.6815 1.02513 13.0251C1.6815 12.3687 2.57174 12 3.5 12H28.5C29.4283 12 30.3185 12.3687 30.9749 13.0251C31.6313 13.6815 32 14.5717 32 15.5V16.5C32 17.4283 31.6313 18.3185 30.9749 18.9749C30.3185 19.6313 29.4283 20 28.5 20V20ZM3.5 14C3.10218 14 2.72064 14.158 2.43934 14.4393C2.15804 14.7206 2 15.1022 2 15.5V16.5C2 16.8978 2.15804 17.2794 2.43934 17.5607C2.72064 17.842 3.10218 18 3.5 18H28.5C28.8978 18 29.2794 17.842 29.5607 17.5607C29.842 17.2794 30 16.8978 30 16.5V15.5C30 15.1022 29.842 14.7206 29.5607 14.4393C29.2794 14.158 28.8978 14 28.5 14H3.5Z" fill="white"/>
<path d="M28.5 9H3.5C2.57174 9 1.6815 8.63125 1.02513 7.97487C0.368749 7.3185 0 6.42826 0 5.5L0 4.5C0 3.57174 0.368749 2.6815 1.02513 2.02513C1.6815 1.36875 2.57174 1 3.5 1H28.5C29.4283 1 30.3185 1.36875 30.9749 2.02513C31.6313 2.6815 32 3.57174 32 4.5V5.5C32 6.42826 31.6313 7.3185 30.9749 7.97487C30.3185 8.63125 29.4283 9 28.5 9V9ZM3.5 3C3.10218 3 2.72064 3.15804 2.43934 3.43934C2.15804 3.72064 2 4.10218 2 4.5V5.5C2 5.89782 2.15804 6.27936 2.43934 6.56066C2.72064 6.84196 3.10218 7 3.5 7H28.5C28.8978 7 29.2794 6.84196 29.5607 6.56066C29.842 6.27936 30 5.89782 30 5.5V4.5C30 4.10218 29.842 3.72064 29.5607 3.43934C29.2794 3.15804 28.8978 3 28.5 3H3.5Z" fill="white"/>
</svg>
