<svg width="40" height="40" viewBox="0 0 40 40" fill="none" xmlns="http://www.w3.org/2000/svg">
<path d="M20 0C14.6957 0 9.60859 2.10714 5.85787 5.85787C2.10714 9.60859 0 14.6957 0 20C0 25.3043 2.10714 30.3914 5.85787 34.1421C9.60859 37.8929 14.6957 40 20 40C25.3043 40 30.3914 37.8929 34.1421 34.1421C37.8929 30.3914 40 25.3043 40 20C40 14.6957 37.8929 9.60859 34.1421 5.85787C30.3914 2.10714 25.3043 0 20 0ZM31.4024 27.2881L27.2857 31.4048L20 24.1167L12.7119 31.4024L8.59524 27.2857L15.8857 20L8.59762 12.7119L12.7143 8.59762L20 15.8833L27.2881 8.59524L31.4048 12.7119L24.1143 20L31.4024 27.2881Z" fill="#D60202"/>
</svg>
