<svg width="20" height="21" viewBox="0 0 20 21" fill="none" xmlns="http://www.w3.org/2000/svg">
<g clip-path="url(#clip0_40_71)">
<path d="M0 10.5769C0 5.26652 4.47717 0.961548 10 0.961548C15.5228 0.961548 20 5.26652 20 10.5769C20 15.8874 15.5228 20.1923 10 20.1923C4.47717 20.1923 0 15.8874 0 10.5769Z" fill="#333333"/>
<path d="M8 16.3462C9.10458 16.3462 10 15.4852 10 14.4231V12.5H8C6.89542 12.5 6 13.361 6 14.4231C6 15.4852 6.89542 16.3462 8 16.3462Z" fill="#0ACF83"/>
<path d="M6 10.5769C6 9.51479 6.89542 8.65381 8 8.65381H10V12.5H8C6.89542 12.5 6 11.6389 6 10.5769Z" fill="#A259FF"/>
<path d="M6 6.73082C6 5.66872 6.89542 4.80774 8 4.80774H10V8.6539H8C6.89542 8.6539 6 7.79288 6 6.73082Z" fill="#F24E1E"/>
<path d="M10 4.80774H12C13.1046 4.80774 14 5.66872 14 6.73082C14 7.79288 13.1046 8.6539 12 8.6539H10V4.80774Z" fill="#FF7262"/>
<path d="M14 10.5769C14 11.6389 13.1046 12.5 12 12.5C10.8954 12.5 10 11.6389 10 10.5769C10 9.51479 10.8954 8.65381 12 8.65381C13.1046 8.65381 14 9.51479 14 10.5769Z" fill="#1ABCFE"/>
</g>
<defs>
<clipPath id="clip0_40_71">
<rect width="20" height="19.2308" fill="white" transform="translate(0 0.961548)"/>
</clipPath>
</defs>
</svg>
