<svg width="18" height="16" viewBox="0 0 18 16" fill="none" xmlns="http://www.w3.org/2000/svg">
<path d="M6.98331 1.33537V1.33337H14.4375C14.8116 1.33337 15.1166 1.63671 15.1166 1.99471V14.0054C15.1165 14.1808 15.0455 14.349 14.9193 14.473C14.7931 14.5971 14.622 14.6667 14.4436 14.6667H3.58968C3.50067 14.6661 3.41265 14.6482 3.33066 14.6142C3.24867 14.5801 3.1743 14.5305 3.1118 14.4681C3.0493 14.4058 2.9999 14.332 2.96642 14.2509C2.93293 14.1697 2.91602 14.0829 2.91664 13.9954V5.33337L6.98331 1.33537ZM4.83475 5.33337H6.98331V3.22004L4.83475 5.33337ZM8.33886 2.66671V6.00004C8.33886 6.17685 8.26746 6.34642 8.14035 6.47144C8.01324 6.59647 7.84084 6.66671 7.66109 6.66671H4.2722V13.3334H13.7611V2.66671H8.33886Z" fill="white"/>
</svg>
