<svg width="20" height="21" viewBox="0 0 20 21" fill="none" xmlns="http://www.w3.org/2000/svg">
<path d="M18.6584 5.98565C17.7642 4.51243 16.5513 3.34609 15.0193 2.48634C13.487 1.62656 11.8143 1.19678 9.99984 1.19678C8.18563 1.19678 6.51234 1.62669 4.98042 2.48634C3.44828 3.34604 2.23537 4.51243 1.34115 5.98565C0.447065 7.45882 0 9.06753 0 10.8117C0 12.9069 0.635733 14.791 1.90752 16.4644C3.17917 18.1379 4.82195 19.2959 6.83572 19.9386C7.07013 19.9804 7.24366 19.951 7.35649 19.851C7.46936 19.751 7.52573 19.6256 7.52573 19.4756C7.52573 19.4505 7.52349 19.2253 7.51916 18.7995C7.51469 18.3738 7.51259 18.0024 7.51259 17.6855L7.2131 17.7353C7.02216 17.7689 6.78127 17.7832 6.49045 17.7791C6.19976 17.7752 5.89799 17.7459 5.58556 17.6915C5.27298 17.6375 4.98225 17.5123 4.71313 17.3162C4.44416 17.12 4.25321 16.8633 4.14034 16.5463L4.01013 16.2582C3.92335 16.0664 3.78671 15.8533 3.60005 15.6198C3.41339 15.386 3.22463 15.2275 3.03369 15.1441L2.94252 15.0813C2.88178 15.0396 2.82541 14.9893 2.77328 14.931C2.7212 14.8726 2.68221 14.8142 2.65617 14.7557C2.63008 14.6972 2.6517 14.6491 2.72125 14.6115C2.79079 14.5738 2.91648 14.5555 3.09886 14.5555L3.35917 14.5929C3.53279 14.6264 3.74754 14.7263 4.0037 14.8933C4.25973 15.0602 4.4702 15.2772 4.63515 15.5442C4.8349 15.8865 5.07556 16.1473 5.3578 16.3268C5.63983 16.5063 5.92417 16.5959 6.21057 16.5959C6.49697 16.5959 6.74433 16.575 6.95275 16.5335C7.16093 16.4917 7.35626 16.429 7.53863 16.3456C7.61675 15.7861 7.82946 15.3563 8.17655 15.0559C7.68183 15.0059 7.23705 14.9306 6.84197 14.8305C6.44712 14.7303 6.0391 14.5676 5.61816 14.342C5.197 14.1167 4.84762 13.837 4.56993 13.5033C4.2922 13.1694 4.06427 12.7311 3.88645 12.1887C3.70855 11.6461 3.61957 11.0202 3.61957 10.3107C3.61957 9.30064 3.96252 8.44108 4.64828 7.73157C4.32704 6.97216 4.35737 6.12084 4.73936 5.17769C4.9911 5.10249 5.36442 5.15893 5.85914 5.34665C6.35395 5.53446 6.71624 5.69535 6.94636 5.82875C7.17648 5.9621 7.36087 6.0751 7.49978 6.16675C8.30721 5.94982 9.14046 5.84133 9.99975 5.84133C10.859 5.84133 11.6925 5.94982 12.4999 6.16675L12.9947 5.86642C13.3331 5.66602 13.7326 5.48237 14.1924 5.31543C14.6525 5.14858 15.0043 5.10262 15.2474 5.17783C15.6379 6.12101 15.6727 6.97229 15.3514 7.7317C16.0371 8.44121 16.3802 9.30099 16.3802 10.3109C16.3802 11.0203 16.2909 11.6482 16.1132 12.195C15.9354 12.7418 15.7055 13.1797 15.4235 13.5096C15.1411 13.8394 14.7895 14.1169 14.3686 14.3421C13.9475 14.5675 13.5394 14.7302 13.1445 14.8305C12.7495 14.9307 12.3047 15.006 11.81 15.0561C12.2612 15.4316 12.4869 16.0242 12.4869 16.8338V19.4752C12.4869 19.6253 12.5411 19.7506 12.6498 19.8507C12.7583 19.9506 12.9296 19.98 13.164 19.9382C15.1781 19.2956 16.8208 18.1376 18.0924 16.464C19.3639 14.7906 19.9999 12.9066 19.9999 10.8114C19.9994 9.0674 19.5521 7.45882 18.6584 5.98565Z" fill="black"/>
</svg>
