<svg width="21" height="21" viewBox="0 0 21 21" fill="none" xmlns="http://www.w3.org/2000/svg">
<g clip-path="url(#clip0_40_24)">
<path d="M10.5 0.775391C5.14626 0.775391 0.806396 4.94833 0.806396 10.0962C0.806396 15.244 5.14626 19.4169 10.5 19.4169C15.8537 19.4169 20.1936 15.244 20.1936 10.0962C20.1936 4.94833 15.8537 0.775391 10.5 0.775391ZM15.7097 13.6332C15.296 13.882 13.6149 13.9561 13.2079 13.6718C12.9847 13.5159 12.7806 13.3209 12.5868 13.1351C12.4511 13.0053 12.2972 12.9423 12.1806 12.8013C12.0855 12.686 12.0202 12.5499 11.92 12.436C11.751 12.245 11.4908 12.0825 11.285 12.3159C10.975 12.667 11.3337 13.3566 10.9204 13.6189C10.7818 13.7069 10.642 13.7324 10.4687 13.7199L10.085 13.7366C9.85971 13.7409 9.50271 13.7429 9.2463 13.6985C8.96028 13.6488 8.72403 13.4986 8.46531 13.3883C7.97433 13.1789 7.50666 12.8936 7.15071 12.4984C6.18198 11.4222 4.88082 9.94209 4.37535 8.589C4.2714 8.31096 3.99672 7.76031 4.25712 7.52184C4.61118 7.27449 6.34893 7.20482 6.62004 7.58727C6.73008 7.74275 6.79959 7.97011 6.8775 8.14639C6.97452 8.36608 7.02702 8.57305 7.17864 8.7675C7.31283 8.93995 7.41174 9.1134 7.51548 9.3024C7.63203 9.51462 7.74207 9.71816 7.88382 9.91342C7.98 10.0463 8.23431 10.3106 8.39496 10.3302C8.78724 10.3784 8.76288 9.46192 8.73369 9.23819C8.70576 9.02253 8.69862 8.79375 8.70597 8.57507C8.71227 8.3885 8.7297 8.12559 8.61483 7.97334C8.42751 7.72498 8.01024 7.91075 7.97769 7.57697C8.04657 7.48226 8.03208 7.39826 8.49219 7.25248C8.85465 7.13799 9.0888 7.14162 9.32778 7.16C9.81498 7.19755 10.3316 7.07075 10.802 7.22259C11.2514 7.36818 11.1819 7.98223 11.1667 8.35013C11.1464 8.85231 11.1682 9.34258 11.1667 9.85244C11.1661 10.0844 11.1565 10.3104 11.4509 10.2914C11.7268 10.2739 11.755 10.0505 11.8866 9.86637C12.0697 9.60952 12.238 9.34904 12.4244 9.09321C12.6758 8.74731 12.7518 8.35861 12.9885 8.00424C13.0731 7.87763 13.146 7.60786 13.2764 7.50771C13.3751 7.43158 13.5626 7.47136 13.6821 7.47136H13.9663C14.1836 7.47136 14.4054 7.46975 14.6288 7.47722C14.9505 7.48792 15.3109 7.41684 15.6299 7.46026C17.0064 7.64703 13.8997 10.4766 14.0614 10.9818C14.1731 11.3307 14.8819 11.7206 15.1376 12.0064C15.4772 12.387 16.5226 13.1436 15.7097 13.6332Z" fill="#4C75A3"/>
<path d="M11 21C16.5228 21 21 16.5228 21 11C21 5.47715 16.5228 1 11 1C5.47715 1 1 5.47715 1 11C1 16.5228 5.47715 21 11 21Z" fill="#E24329"/>
<path d="M15.9746 11.7969L15.416 10.0742L14.3066 6.66406C14.25 6.48828 14.002 6.48828 13.9453 6.66406L12.8359 10.0742H9.15626L8.04688 6.66602C7.99024 6.49023 7.74219 6.49023 7.68555 6.66406L6.57618 10.0742L6.01759 11.7969C5.9668 11.9531 6.02344 12.125 6.15626 12.2227L10.9961 15.7383L15.8359 12.2227C15.9707 12.127 16.0254 11.9551 15.9746 11.7969Z" fill="white"/>
</g>
<defs>
<clipPath id="clip0_40_24">
<rect width="21" height="20.1923" fill="white"/>
</clipPath>
</defs>
</svg>
