<svg width="20" height="21" viewBox="0 0 20 21" fill="none" xmlns="http://www.w3.org/2000/svg">
<g clip-path="url(#clip0_40_35)">
<path d="M0 10.577C0 15.8875 4.47713 20.1924 10 20.1924C15.5229 20.1924 20 15.8875 20 10.577C20 5.2665 15.5229 0.961575 10 0.961575C4.47713 0.961575 0 5.2665 0 10.577Z" fill="url(#paint0_linear_40_35)"/>
<path d="M6.7691 11.2798L7.95555 14.4374C7.95555 14.4374 8.10385 14.7327 8.26275 14.7327C8.42165 14.7327 10.7839 12.3696 10.7839 12.3696L13.4111 7.49055L6.81148 10.4648L6.7691 11.2798Z" fill="#C8DAEA"/>
<path d="M8.34214 12.0896L8.11434 14.417C8.11434 14.417 8.019 15.13 8.76053 14.417C9.50206 13.704 10.2118 13.154 10.2118 13.154" fill="#A9C6D8"/>
<path d="M6.79041 11.3925L4.35015 10.6279C4.35015 10.6279 4.05888 10.5142 4.15244 10.2562C4.17176 10.203 4.21066 10.1577 4.32718 10.0796C4.86803 9.71723 14.336 6.44498 14.336 6.44498C14.336 6.44498 14.6034 6.35844 14.7614 6.41597C14.8336 6.44229 14.8797 6.47203 14.9186 6.58057C14.9327 6.62009 14.9408 6.7041 14.9397 6.78771C14.9389 6.84801 14.9313 6.90383 14.9257 6.99143C14.868 7.88615 13.1426 14.563 13.1426 14.563C13.1426 14.563 13.0394 14.9537 12.6695 14.967C12.5346 14.9719 12.3708 14.9456 12.1751 14.7837C11.4492 14.1833 8.94016 12.5619 8.38583 12.2054C8.35448 12.1854 8.34566 12.1592 8.34032 12.1337C8.33253 12.0962 8.37422 12.0495 8.37422 12.0495C8.37422 12.0495 12.743 8.31534 12.8593 7.92355C12.8683 7.89315 12.8345 7.87816 12.7886 7.89128C12.4985 7.99395 7.46829 11.0481 6.9132 11.3854C6.88075 11.4051 6.78973 11.3924 6.78973 11.3924" fill="white"/>
</g>
<defs>
<linearGradient id="paint0_linear_40_35" x1="10" y1="20.1923" x2="10" y2="0.961493" gradientUnits="userSpaceOnUse">
<stop stop-color="#1D93D2"/>
<stop offset="1" stop-color="#38B0E3"/>
</linearGradient>
<clipPath id="clip0_40_35">
<rect width="20" height="19.2308" fill="white" transform="translate(0 0.961548)"/>
</clipPath>
</defs>
</svg>
