<svg width="20" height="20" viewBox="0 0 20 20" fill="none" xmlns="http://www.w3.org/2000/svg">
<g clip-path="url(#clip0_40_81)">
<path d="M10 19.2308C15.5228 19.2308 20 14.9258 20 9.61539C20 4.30497 15.5228 0 10 0C4.47717 0 0 4.30497 0 9.61539C0 14.9258 4.47717 19.2308 10 19.2308Z" fill="url(#paint0_linear_40_81)"/>
<path fill-rule="evenodd" clip-rule="evenodd" d="M4 5.77096C4 4.70794 4.89217 3.84619 6.00179 3.84619H13.9982C15.1038 3.84619 16 4.70401 16 5.77096V13.4599C16 14.5229 15.1078 15.3847 13.9982 15.3847H6.00179C4.89621 15.3847 4 14.5268 4 13.4599V5.77096ZM10.78 6.03883V9.70161C10.78 10.0842 11.1023 10.3943 11.4998 10.3943H13.7202C14.1176 10.3943 14.44 10.0841 14.44 9.70161V6.03883C14.44 5.65626 14.1177 5.3462 13.7202 5.3462H11.4998C11.1024 5.3462 10.78 5.6563 10.78 6.03883ZM5.56 12.5871V6.03803C5.56 5.65593 5.88237 5.3462 6.27983 5.3462H8.50017C8.89771 5.3462 9.22 5.65593 9.22 6.03803V12.5871C9.22 12.9692 8.89762 13.2789 8.50017 13.2789H6.27983C5.88229 13.2789 5.56 12.9691 5.56 12.5871Z" fill="white"/>
</g>
<defs>
<linearGradient id="paint0_linear_40_81" x1="0" y1="0" x2="0" y2="19.2308" gradientUnits="userSpaceOnUse">
<stop stop-color="#0091E6"/>
<stop offset="1" stop-color="#0079BF"/>
</linearGradient>
<clipPath id="clip0_40_81">
<rect width="20" height="19.2308" fill="white"/>
</clipPath>
</defs>
</svg>
