<svg width="40" height="40" viewBox="0 0 40 40" fill="none" xmlns="http://www.w3.org/2000/svg">
<path d="M20 40C8.954 40 0 31.046 0 20C0 8.954 8.954 0 20 0C31.046 0 40 8.954 40 20C40 31.046 31.046 40 20 40ZM10.026 32.512C12.8571 34.7754 16.3754 36.0058 20 36C23.94 36 27.546 34.576 30.334 32.216C29.0314 30.8795 27.4741 29.8178 25.7541 29.0936C24.034 28.3695 22.1863 27.9976 20.32 28C18.3852 27.9978 16.471 28.3977 14.6989 29.1744C12.9269 29.9512 11.3356 31.0877 10.026 32.512ZM7.232 29.64C8.91291 27.8561 10.9413 26.4354 13.1923 25.4654C15.4432 24.4954 17.869 23.9967 20.32 24C22.6833 23.9969 25.0239 24.4607 27.2075 25.3648C29.391 26.2688 31.3745 27.5953 33.044 29.268C34.7562 26.8582 35.7673 24.0213 35.9651 21.0718C36.163 18.1224 35.5399 15.1758 34.165 12.5589C32.79 9.94205 30.717 7.75725 28.1759 6.24689C25.6348 4.73653 22.725 3.95968 19.7692 4.0025C16.8134 4.04533 13.9273 4.90617 11.431 6.48951C8.93476 8.07286 6.92592 10.3168 5.62738 12.9724C4.32885 15.628 3.79139 18.5914 4.07463 21.5339C4.35787 24.4764 5.45075 27.2829 7.232 29.642V29.64ZM20 22C17.8783 22 15.8434 21.1571 14.3431 19.6569C12.8429 18.1566 12 16.1217 12 14C12 11.8783 12.8429 9.84344 14.3431 8.34315C15.8434 6.84285 17.8783 6 20 6C22.1217 6 24.1566 6.84285 25.6569 8.34315C27.1571 9.84344 28 11.8783 28 14C28 16.1217 27.1571 18.1566 25.6569 19.6569C24.1566 21.1571 22.1217 22 20 22ZM20 18C21.0609 18 22.0783 17.5786 22.8284 16.8284C23.5786 16.0783 24 15.0609 24 14C24 12.9391 23.5786 11.9217 22.8284 11.1716C22.0783 10.4214 21.0609 10 20 10C18.9391 10 17.9217 10.4214 17.1716 11.1716C16.4214 11.9217 16 12.9391 16 14C16 15.0609 16.4214 16.0783 17.1716 16.8284C17.9217 17.5786 18.9391 18 20 18Z" fill="white"/>
</svg>
