<svg width="40" height="40" viewBox="0 0 40 40" fill="none" xmlns="http://www.w3.org/2000/svg">
<path d="M20.0004 2.22217C16.4843 2.22217 13.0472 3.26482 10.1236 5.21826C7.2001 7.17171 4.92147 9.94822 3.57592 13.1967C2.23036 16.4451 1.8783 20.0197 2.56426 23.4682C3.25022 26.9168 4.94339 30.0845 7.42965 32.5707C9.91592 35.057 13.0836 36.7502 16.5322 37.4361C19.9807 38.1221 23.5552 37.77 26.8037 36.4245C30.0522 35.0789 32.8287 32.8003 34.7821 29.8767C36.7356 26.9532 37.7782 23.5161 37.7782 19.9999C37.7782 15.285 35.9052 10.7631 32.5712 7.42916C29.2372 4.09518 24.7154 2.22217 20.0004 2.22217ZM31.6116 14.0333L17.0116 28.6222L8.38933 19.9999C8.09465 19.7053 7.92909 19.3056 7.92909 18.8888C7.92909 18.4721 8.09465 18.0724 8.38933 17.7777C8.68402 17.483 9.08369 17.3175 9.50044 17.3175C9.91719 17.3175 10.3169 17.483 10.6116 17.7777L17.0338 24.1999L29.4116 11.8333C29.5575 11.6874 29.7307 11.5716 29.9213 11.4927C30.112 11.4137 30.3163 11.373 30.5227 11.373C30.729 11.373 30.9333 11.4137 31.124 11.4927C31.3146 11.5716 31.4879 11.6874 31.6338 11.8333C31.7797 11.9792 31.8954 12.1524 31.9744 12.3431C32.0534 12.5337 32.094 12.738 32.094 12.9444C32.094 13.1507 32.0534 13.3551 31.9744 13.5457C31.8954 13.7364 31.7797 13.9096 31.6338 14.0555L31.6116 14.0333Z" fill="#38B7B5"/>
</svg>
